<?xml version="1.0" standalone="no"?>
<!DOCTYPE svg PUBLIC "-//W3C//DTD SVG 20010904//EN"
 "http://www.w3.org/TR/2001/REC-SVG-20010904/DTD/svg10.dtd">
<svg version="1.0" xmlns="http://www.w3.org/2000/svg"
 width="779.000000pt" height="425.000000pt" viewBox="0 0 779.000000 425.000000"
 preserveAspectRatio="xMidYMid meet">

<g transform="translate(0.000000,425.000000) scale(0.100000,-0.100000)"
fill="#000000" stroke="none">
<path d="M0 2125 l0 -2125 2500 0 c1375 0 2500 2 2500 5 0 3 -9 22 -19 43 -63
124 -105 384 -100 615 2 81 4 147 3 147 0 0 -15 -7 -31 -15 -23 -11 -38 -13
-56 -6 -17 7 -35 6 -54 -1 -23 -9 -37 -7 -68 6 -76 33 -90 42 -93 59 -4 22 15
47 37 47 9 0 22 9 29 20 7 11 23 20 36 20 13 0 29 7 36 15 16 19 44 19 60 1 6
-8 18 -12 26 -9 17 6 74 -15 74 -28 0 -5 6 -9 14 -9 9 0 21 22 31 58 9 31 31
90 48 131 17 41 26 76 21 78 -5 2 -8 34 -7 73 1 67 -10 99 -23 66 -10 -27 -21
-18 -16 14 3 21 10 30 23 30 11 0 19 5 19 11 0 5 5 7 11 4 6 -4 21 3 35 16 19
18 24 19 24 6 0 -9 4 -19 10 -22 5 -3 7 0 4 8 -3 8 -1 18 5 22 15 8 14 -38 0
-52 -7 -7 -7 -13 -1 -17 5 -3 29 20 53 52 51 68 176 193 280 279 174 146 431
256 638 271 260 20 467 -4 720 -84 22 -6 23 -5 18 17 -3 13 -13 94 -22 179
-14 131 -15 161 -3 195 17 51 40 56 67 12 31 -50 51 -165 58 -324 3 -79 9
-143 13 -143 17 0 192 -125 252 -180 l68 -61 158 115 c202 146 247 174 298
182 33 5 42 3 48 -11 9 -25 -25 -74 -81 -116 -181 -136 -249 -184 -298 -213
l-55 -34 40 -50 c90 -114 169 -266 218 -418 48 -147 57 -213 57 -414 0 -159
-3 -198 -23 -280 -23 -95 -57 -202 -87 -272 l-15 -38 155 0 155 0 0 2125 0
2125 -3895 0 -3895 0 0 -2125z m7338 87 c4 -30 -148 -371 -197 -442 -40 -59
-76 -75 -101 -46 -16 21 -6 60 53 193 50 111 156 284 191 309 28 19 50 14 54
-14z m-2307 -702 l24 -20 -28 10 c-39 14 -67 12 -99 -4 -39 -20 -35 -10 5 14
41 25 69 25 98 0z m-101 -40 c0 -5 -5 -10 -11 -10 -5 0 -7 5 -4 10 3 6 8 10
11 10 2 0 4 -4 4 -10z m-255 -1104 c11 -7 33 -14 48 -14 15 0 36 -7 46 -16 9
-9 26 -16 36 -16 26 0 55 -29 55 -56 0 -26 -26 -44 -62 -44 -13 0 -30 -6 -36
-12 -17 -17 -159 -20 -197 -4 -16 7 -42 18 -57 24 -39 16 -39 58 -1 75 15 6
36 20 45 30 10 9 26 17 36 17 9 0 26 7 36 15 24 18 27 18 51 1z"/>
<path d="M4990 1349 c-13 -9 -13 -10 0 -6 8 2 20 -3 27 -12 6 -9 15 -13 19 -9
7 8 -13 38 -25 38 -3 0 -13 -5 -21 -11z"/>
<path d="M5060 1315 c7 -9 15 -13 17 -11 7 7 -7 26 -19 26 -6 0 -6 -6 2 -15z"/>
<path d="M5000 1263 c0 -27 43 -26 53 1 4 9 -4 13 -24 12 -16 -1 -29 -6 -29
-13z"/>
</g>
</svg>
